<svg width="298" height="169" version="1.1" xmlns="http://www.w3.org/2000/svg" desc="Created with imagetracer.js version 1.2.6" ><path fill="rgb(202,201,201)" stroke="rgb(202,201,201)" stroke-width="1" opacity="1" d="M 116.5 0 L 117 126 L 131.5 126 L 132 125.5 L 132 0.5 L 133 0.5 L 133 125.5 L 131.5 127 L 117.5 127 L 116 125.5 L 116.5 0 Z " /><path fill="rgb(202,201,201)" stroke="rgb(202,201,201)" stroke-width="1" opacity="1" d="M 152.5 0 L 153 23.5 L 152 23.5 L 152.5 0 Z " /><path fill="rgb(202,201,201)" stroke="rgb(202,201,201)" stroke-width="1" opacity="1" d="M 157.5 0 L 158 126 L 173 126.5 L 157 127 L 157.5 0 Z " /><path fill="rgb(202,201,201)" stroke="rgb(202,201,201)" stroke-width="1" opacity="1" d="M 62.5 37 L 73 37.5 L 62.5 38 L 62.5 37 Z " /><path fill="rgb(202,201,201)" stroke="rgb(202,201,201)" stroke-width="1" opacity="1" d="M 137.5 37 L 152.5 37 L 153 37.5 L 153 127 L 137 126.5 L 152 126 L 152 38.5 L 151.5 38 L 137.5 38 L 137.5 37 Z " /><path fill="rgb(202,201,201)" stroke="rgb(202,201,201)" stroke-width="1" opacity="1" d="M 229.5 38 L 232 38.5 L 229.5 39 L 229.5 38 Z " /><path fill="rgb(202,201,201)" stroke="rgb(202,201,201)" stroke-width="1" opacity="1" d="M 90.5 43 L 91.5 45 L 90.5 43 Z " /><path fill="rgb(202,201,201)" stroke="rgb(202,201,201)" stroke-width="1" opacity="1" d="M 199.5 43 L 198.5 45 L 199.5 43 Z " /><path fill="rgb(202,201,201)" stroke="rgb(202,201,201)" stroke-width="1" opacity="1" d="M 93.5 45 L 94.5 47 L 93.5 45 Z " /><path fill="rgb(202,201,201)" stroke="rgb(202,201,201)" stroke-width="1" opacity="1" d="M 196.5 45 L 195.5 47 L 196.5 45 Z " /><path fill="rgb(202,201,201)" stroke="rgb(202,201,201)" stroke-width="1" opacity="1" d="M 39.5 46 L 37.5 49 L 39.5 46 Z " /><path fill="rgb(202,201,201)" stroke="rgb(202,201,201)" stroke-width="1" opacity="1" d="M 249.5 46 L 250.5 48 L 249.5 46 Z " /><path fill="rgb(202,201,201)" stroke="rgb(202,201,201)" stroke-width="1" opacity="1" d="M 97.5 48 L 102.5 54 L 97.5 48 Z " /><path fill="rgb(202,201,201)" stroke="rgb(202,201,201)" stroke-width="1" opacity="1" d="M 192.5 48 L 186.5 55 L 192.5 48 Z " /><path fill="rgb(202,201,201)" stroke="rgb(202,201,201)" stroke-width="1" opacity="1" d="M 65.5 52 L 70 52.5 L 65.5 53 L 65.5 52 Z " /><path fill="rgb(202,201,201)" stroke="rgb(202,201,201)" stroke-width="1" opacity="1" d="M 32.5 53 L 30.5 56 L 32.5 53 Z " /><path fill="rgb(202,201,201)" stroke="rgb(202,201,201)" stroke-width="1" opacity="1" d="M 215.5 53 L 218 53.5 L 215.5 54 L 215.5 53 Z " /><path fill="rgb(202,201,201)" stroke="rgb(202,201,201)" stroke-width="1" opacity="1" d="M 226.5 53 L 229 53.5 L 226.5 54 L 226.5 53 Z " /><path fill="rgb(202,201,201)" stroke="rgb(202,201,201)" stroke-width="1" opacity="1" d="M 258.5 55 L 259.5 57 L 258.5 55 Z " /><path fill="rgb(202,201,201)" stroke="rgb(202,201,201)" stroke-width="1" opacity="1" d="M 104.5 56 L 105.5 58 L 104.5 56 Z " /><path fill="rgb(202,201,201)" stroke="rgb(202,201,201)" stroke-width="1" opacity="1" d="M 29.5 57 L 28.5 59 L 29.5 57 Z " /><path fill="rgb(202,201,201)" stroke="rgb(202,201,201)" stroke-width="1" opacity="1" d="M 83.5 57 L 84.5 59 L 83.5 57 Z " /><path fill="rgb(202,201,201)" stroke="rgb(202,201,201)" stroke-width="1" opacity="1" d="M 49.5 58 L 43.5 65 L 49.5 58 Z " /><path fill="rgb(202,201,201)" stroke="rgb(202,201,201)" stroke-width="1" opacity="1" d="M 239.5 58 L 240.5 60 L 239.5 58 Z " /><path fill="rgb(202,201,201)" stroke="rgb(202,201,201)" stroke-width="1" opacity="1" d="M 203.5 59 L 199.5 64 L 203.5 59 Z " /><path fill="rgb(202,201,201)" stroke="rgb(202,201,201)" stroke-width="1" opacity="1" d="M 245.5 64 L 246.5 66 L 245.5 64 Z " /><path fill="rgb(202,201,201)" stroke="rgb(202,201,201)" stroke-width="1" opacity="1" d="M 42.5 66 L 41.5 68 L 42.5 66 Z " /><path fill="rgb(202,201,201)" stroke="rgb(202,201,201)" stroke-width="1" opacity="1" d="M 22.5 72 L 23 74.5 L 22 74.5 L 22.5 72 Z " /><path fill="rgb(202,201,201)" stroke="rgb(202,201,201)" stroke-width="1" opacity="1" d="M 112.5 74 L 113 77.5 L 112 77.5 L 112.5 74 Z " /><path fill="rgb(202,201,201)" stroke="rgb(202,201,201)" stroke-width="1" opacity="1" d="M 267.5 75 L 268 77.5 L 267 77.5 L 267.5 75 Z " /><path fill="rgb(202,201,201)" stroke="rgb(202,201,201)" stroke-width="1" opacity="1" d="M 193.5 76 L 194 78 L 251 78.5 L 193 79 L 193.5 76 Z " /><path fill="rgb(202,201,201)" stroke="rgb(202,201,201)" stroke-width="1" opacity="1" d="M 21.5 78 L 22 88.5 L 21 88.5 L 21.5 78 Z " /><path fill="rgb(202,201,201)" stroke="rgb(202,201,201)" stroke-width="1" opacity="1" d="M 176.5 78 L 177 88.5 L 176 88.5 L 176.5 78 Z " /><path fill="rgb(202,201,201)" stroke="rgb(202,201,201)" stroke-width="1" opacity="1" d="M 267.5 89 L 268 90.5 L 266.5 92 L 193.5 92 L 193.5 91 L 266.5 91 L 267.5 89 Z " /><path fill="rgb(202,201,201)" stroke="rgb(202,201,201)" stroke-width="1" opacity="1" d="M 22.5 92 L 23 94.5 L 22 94.5 L 22.5 92 Z " /><path fill="rgb(202,201,201)" stroke="rgb(202,201,201)" stroke-width="1" opacity="1" d="M 41.5 99 L 42.5 101 L 41.5 99 Z " /><path fill="rgb(202,201,201)" stroke="rgb(202,201,201)" stroke-width="1" opacity="1" d="M 43.5 102 L 44.5 104 L 43.5 102 Z " /><path fill="rgb(202,201,201)" stroke="rgb(202,201,201)" stroke-width="1" opacity="1" d="M 198.5 102 L 199.5 104 L 198.5 102 Z " /><path fill="rgb(202,201,201)" stroke="rgb(202,201,201)" stroke-width="1" opacity="1" d="M 90.5 104 L 86.5 109 L 90.5 104 Z " /><path fill="rgb(202,201,201)" stroke="rgb(202,201,201)" stroke-width="1" opacity="1" d="M 245.5 104 L 241.5 109 L 245.5 104 Z " /><path fill="rgb(202,201,201)" stroke="rgb(202,201,201)" stroke-width="1" opacity="1" d="M 49.5 108 L 50.5 110 L 49.5 108 Z " /><path fill="rgb(202,201,201)" stroke="rgb(202,201,201)" stroke-width="1" opacity="1" d="M 204.5 108 L 205.5 110 L 204.5 108 Z " /><path fill="rgb(202,201,201)" stroke="rgb(202,201,201)" stroke-width="1" opacity="1" d="M 30.5 111 L 31.5 113 L 30.5 111 Z " /><path fill="rgb(202,201,201)" stroke="rgb(202,201,201)" stroke-width="1" opacity="1" d="M 185.5 111 L 186.5 113 L 185.5 111 Z " /><path fill="rgb(202,201,201)" stroke="rgb(202,201,201)" stroke-width="1" opacity="1" d="M 103.5 112 L 102.5 114 L 103.5 112 Z " /><path fill="rgb(202,201,201)" stroke="rgb(202,201,201)" stroke-width="1" opacity="1" d="M 258.5 112 L 257.5 114 L 258.5 112 Z " /><path fill="rgb(202,201,201)" stroke="rgb(202,201,201)" stroke-width="1" opacity="1" d="M 62.5 114 L 65 114.5 L 62.5 115 L 62.5 114 Z " /><path fill="rgb(202,201,201)" stroke="rgb(202,201,201)" stroke-width="1" opacity="1" d="M 71.5 114 L 74 114.5 L 71.5 115 L 71.5 114 Z " /><path fill="rgb(202,201,201)" stroke="rgb(202,201,201)" stroke-width="1" opacity="1" d="M 216.5 114 L 219 114.5 L 216.5 115 L 216.5 114 Z " /><path fill="rgb(202,201,201)" stroke="rgb(202,201,201)" stroke-width="1" opacity="1" d="M 226.5 114 L 229 114.5 L 226.5 115 L 226.5 114 Z " /><path fill="rgb(202,201,201)" stroke="rgb(202,201,201)" stroke-width="1" opacity="1" d="M 96.5 119 L 95.5 121 L 96.5 119 Z " /><path fill="rgb(202,201,201)" stroke="rgb(202,201,201)" stroke-width="1" opacity="1" d="M 251.5 119 L 250.5 121 L 251.5 119 Z " /><path fill="rgb(202,201,201)" stroke="rgb(202,201,201)" stroke-width="1" opacity="1" d="M 39.5 120 L 40.5 122 L 39.5 120 Z " /><path fill="rgb(202,201,201)" stroke="rgb(202,201,201)" stroke-width="1" opacity="1" d="M 194.5 120 L 195.5 122 L 194.5 120 Z " /><path fill="rgb(202,201,201)" stroke="rgb(202,201,201)" stroke-width="1" opacity="1" d="M 58.5 129 L 61 129.5 L 58.5 130 L 58.5 129 Z " /><path fill="rgb(202,201,201)" stroke="rgb(202,201,201)" stroke-width="1" opacity="1" d="M 73.5 129 L 76 129.5 L 73.5 130 L 73.5 129 Z " /><path fill="rgb(202,201,201)" stroke="rgb(202,201,201)" stroke-width="1" opacity="1" d="M 213.5 129 L 216 129.5 L 213.5 130 L 213.5 129 Z " /><path fill="rgb(202,201,201)" stroke="rgb(202,201,201)" stroke-width="1" opacity="1" d="M 228.5 129 L 231 129.5 L 228.5 130 L 228.5 129 Z " /><path fill="rgb(202,201,201)" stroke="rgb(202,201,201)" stroke-width="1" opacity="1" d="M 0.5 148 L 9 148.5 L 0.5 149 L 0.5 148 Z " /><path fill="rgb(202,201,201)" stroke="rgb(202,201,201)" stroke-width="1" opacity="1" d="M 12.5 148 L 16 149.5 L 15.5 165 L 15 149 Q 11.7 149.8 12.5 148 Z " /><path fill="rgb(202,201,201)" stroke="rgb(202,201,201)" stroke-width="1" opacity="1" d="M 22.5 148 L 25 148.5 L 22.5 149 L 22.5 148 Z " /><path fill="rgb(202,201,201)" stroke="rgb(202,201,201)" stroke-width="1" opacity="1" d="M 27.5 148 L 36.5 148 L 37.5 149 L 38.5 148 L 46.5 148 L 46.5 149 L 38 149 L 38 168 L 47 168.5 L 37 169 L 37 152.5 L 36 149 L 27.5 149 L 27.5 148 Z " /><path fill="rgb(202,201,201)" stroke="rgb(202,201,201)" stroke-width="1" opacity="1" d="M 56.5 148 Q 60.3 147.3 61 149.5 L 59.5 149 Q 55.5 149.8 56.5 148 Z " /><path fill="rgb(202,201,201)" stroke="rgb(202,201,201)" stroke-width="1" opacity="1" d="M 69.5 148 Q 74 147.5 74 148.5 L 74 169 L 70 168.5 L 73 168 L 73 149.5 L 69 149 L 68.5 151 L 68 149.5 L 69.5 148 Z " /><path fill="rgb(202,201,201)" stroke="rgb(202,201,201)" stroke-width="1" opacity="1" d="M 95.5 148 L 102 148.5 L 95.5 149 L 95.5 148 Z " /><path fill="rgb(202,201,201)" stroke="rgb(202,201,201)" stroke-width="1" opacity="1" d="M 111.5 148 L 119.5 148 L 121 149.5 L 119.5 149 L 111.5 149 L 111.5 148 Z " /><path fill="rgb(202,201,201)" stroke="rgb(202,201,201)" stroke-width="1" opacity="1" d="M 123.5 148 L 127 148.5 L 127 164.5 L 126 164.5 L 126 149.5 L 123.5 149 L 123.5 148 Z " /><path fill="rgb(202,201,201)" stroke="rgb(202,201,201)" stroke-width="1" opacity="1" d="M 139 148 L 144 148.5 L 140 149 L 139.5 151 L 139 148 Z " /><path fill="rgb(202,201,201)" stroke="rgb(202,201,201)" stroke-width="1" opacity="1" d="M 152.5 148 L 157 148.5 L 152.5 149 L 152.5 148 Z " /><path fill="rgb(202,201,201)" stroke="rgb(202,201,201)" stroke-width="1" opacity="1" d="M 165.5 148 L 169 149.5 L 168.5 151 L 168 149 Q 164.7 149.8 165.5 148 Z " /><path fill="rgb(202,201,201)" stroke="rgb(202,201,201)" stroke-width="1" opacity="1" d="M 176 148 L 180 148.5 L 177 149 L 177 167.5 L 179.5 168 L 179.5 169 L 176 168.5 L 176 148 Z " /><path fill="rgb(202,201,201)" stroke="rgb(202,201,201)" stroke-width="1" opacity="1" d="M 187.5 148 L 191 148.5 L 191 167.5 Q 190.3 169.8 186.5 169 L 186.5 168 L 190 167.5 L 190 149 Q 186.7 149.8 187.5 148 Z " /><path fill="rgb(202,201,201)" stroke="rgb(202,201,201)" stroke-width="1" opacity="1" d="M 199.5 148 L 202 148.5 L 198.5 150 L 199.5 148 Z " /><path fill="rgb(202,201,201)" stroke="rgb(202,201,201)" stroke-width="1" opacity="1" d="M 220.5 148 L 223 149.5 L 221.5 149 L 220.5 148 Z " /><path fill="rgb(202,201,201)" stroke="rgb(202,201,201)" stroke-width="1" opacity="1" d="M 229.5 148 L 238 148.5 L 229.5 149 L 229.5 148 Z " /><path fill="rgb(202,201,201)" stroke="rgb(202,201,201)" stroke-width="1" opacity="1" d="M 241.5 148 Q 245.3 147.3 246 149.5 L 244.5 149 Q 240.5 149.8 241.5 148 Z " /><path fill="rgb(202,201,201)" stroke="rgb(202,201,201)" stroke-width="1" opacity="1" d="M 254.5 148 Q 259 147.5 259 148.5 L 259 169 L 255 168.5 L 258 168 L 258 149.5 L 254 149 L 253.5 151 L 253 149.5 L 254.5 148 Z " /><path fill="rgb(202,201,201)" stroke="rgb(202,201,201)" stroke-width="1" opacity="1" d="M 261.5 148 L 269.5 148 L 271 149.5 L 270.5 152 L 270 149 L 261.5 149 L 261.5 148 Z " /><path fill="rgb(202,201,201)" stroke="rgb(202,201,201)" stroke-width="1" opacity="1" d="M 273.5 148 Q 277.3 147.3 278 149.5 L 276.5 149 Q 272.5 149.8 273.5 148 Z " /><path fill="rgb(202,201,201)" stroke="rgb(202,201,201)" stroke-width="1" opacity="1" d="M 284.5 148 L 287 148.5 L 284 149 L 284 159.5 L 283 160.5 L 283.5 162 Q 280.8 160.8 283 159.5 L 283 149.5 L 284.5 148 Z " /><path fill="rgb(202,201,201)" stroke="rgb(202,201,201)" stroke-width="1" opacity="1" d="M 288 148 L 298 148.5 L 289 149 L 288.5 152 L 288 148 Z " /><path fill="rgb(202,201,201)" stroke="rgb(202,201,201)" stroke-width="1" opacity="1" d="M 79.5 149 L 78.5 151 L 79.5 149 Z " /><path fill="rgb(202,201,201)" stroke="rgb(202,201,201)" stroke-width="1" opacity="1" d="M 213.5 149 L 211.5 152 L 213.5 149 Z " /><path fill="rgb(202,201,201)" stroke="rgb(202,201,201)" stroke-width="1" opacity="1" d="M 3.5 152 L 4 156.5 L 3 156.5 L 3.5 152 Z " /><path fill="rgb(202,201,201)" stroke="rgb(202,201,201)" stroke-width="1" opacity="1" d="M 33.5 152 L 34 167.5 L 30.5 169 L 30.5 168 L 33 167.5 L 33.5 152 Z " /><path fill="rgb(202,201,201)" stroke="rgb(202,201,201)" stroke-width="1" opacity="1" d="M 81.5 152 L 80.5 154 L 81.5 152 Z " /><path fill="rgb(202,201,201)" stroke="rgb(202,201,201)" stroke-width="1" opacity="1" d="M 98.5 152 L 99 164.5 L 98 164.5 L 98.5 152 Z " /><path fill="rgb(202,201,201)" stroke="rgb(202,201,201)" stroke-width="1" opacity="1" d="M 101.5 152 L 105 154.5 L 102.5 153 L 101.5 152 Z " /><path fill="rgb(202,201,201)" stroke="rgb(202,201,201)" stroke-width="1" opacity="1" d="M 114.5 152 L 115 156.5 L 114 156.5 L 114.5 152 Z " /><path fill="rgb(202,201,201)" stroke="rgb(202,201,201)" stroke-width="1" opacity="1" d="M 264.5 152 L 265 156.5 L 264 156.5 L 264.5 152 Z " /><path fill="rgb(202,201,201)" stroke="rgb(202,201,201)" stroke-width="1" opacity="1" d="M 291.5 152 L 292 168 L 295 168.5 L 291 169 L 291.5 152 Z " /><path fill="rgb(202,201,201)" stroke="rgb(202,201,201)" stroke-width="1" opacity="1" d="M 153.5 154 L 154 168 L 157 168.5 L 154.5 169 L 153 167.5 Q 154.3 160.7 152 157.5 L 153.5 154 Z " /><path fill="rgb(202,201,201)" stroke="rgb(202,201,201)" stroke-width="1" opacity="1" d="M 200.5 154 L 201 155.5 L 199 156.5 L 200.5 154 Z " /><path fill="rgb(202,201,201)" stroke="rgb(202,201,201)" stroke-width="1" opacity="1" d="M 222.5 154 L 226 154.5 L 222.5 155 L 222.5 154 Z " /><path fill="rgb(202,201,201)" stroke="rgb(202,201,201)" stroke-width="1" opacity="1" d="M 69 155 Q 72 153.8 71 157.5 L 69 156.5 L 69 155 Z " /><path fill="rgb(202,201,201)" stroke="rgb(202,201,201)" stroke-width="1" opacity="1" d="M 142.5 155 L 144 157.5 L 143 158.5 L 143 169 L 139 168.5 L 142 168 L 142.5 155 Z " /><path fill="rgb(202,201,201)" stroke="rgb(202,201,201)" stroke-width="1" opacity="1" d="M 276.5 155 Q 279.3 156.3 277 157.5 L 277 168.5 L 273.5 169 L 273.5 168 L 276 167.5 L 276.5 155 Z " /><path fill="rgb(202,201,201)" stroke="rgb(202,201,201)" stroke-width="1" opacity="1" d="M 75.5 156 L 76 160.5 L 75 160.5 L 75.5 156 Z " /><path fill="rgb(202,201,201)" stroke="rgb(202,201,201)" stroke-width="1" opacity="1" d="M 105.5 156 L 106 160.5 L 105 160.5 L 105.5 156 Z " /><path fill="rgb(202,201,201)" stroke="rgb(202,201,201)" stroke-width="1" opacity="1" d="M 212.5 156 L 213 160.5 L 212 160.5 L 212.5 156 Z " /><path fill="rgb(202,201,201)" stroke="rgb(202,201,201)" stroke-width="1" opacity="1" d="M 46.5 157 L 47 161 L 41 160.5 L 46 160 L 46.5 157 Z " /><path fill="rgb(202,201,201)" stroke="rgb(202,201,201)" stroke-width="1" opacity="1" d="M 70.5 159 L 71 161.5 L 70 161.5 L 70.5 159 Z " /><path fill="rgb(202,201,201)" stroke="rgb(202,201,201)" stroke-width="1" opacity="1" d="M 3 160 L 9 160.5 L 4 161 L 3.5 165 L 3 160 Z " /><path fill="rgb(202,201,201)" stroke="rgb(202,201,201)" stroke-width="1" opacity="1" d="M 114 160 L 120 160.5 L 115 161 L 114.5 165 L 114 160 Z " /><path fill="rgb(202,201,201)" stroke="rgb(202,201,201)" stroke-width="1" opacity="1" d="M 147.5 160 L 149 162.5 L 147 161.5 L 147.5 160 Z " /><path fill="rgb(202,201,201)" stroke="rgb(202,201,201)" stroke-width="1" opacity="1" d="M 232.5 160 L 238 160.5 L 232.5 161 L 232.5 160 Z " /><path fill="rgb(202,201,201)" stroke="rgb(202,201,201)" stroke-width="1" opacity="1" d="M 264 160 L 270 160.5 L 265 161 L 264.5 165 L 264 160 Z " /><path fill="rgb(202,201,201)" stroke="rgb(202,201,201)" stroke-width="1" opacity="1" d="M 104.5 162 L 102.5 165 L 101 164.5 L 104.5 162 Z " /><path fill="rgb(202,201,201)" stroke="rgb(202,201,201)" stroke-width="1" opacity="1" d="M 80.5 163 L 81.5 165 L 80.5 163 Z " /><path fill="rgb(202,201,201)" stroke="rgb(202,201,201)" stroke-width="1" opacity="1" d="M 164.5 163 L 170 163.5 L 163.5 165 L 164.5 163 Z " /><path fill="rgb(202,201,201)" stroke="rgb(202,201,201)" stroke-width="1" opacity="1" d="M 197.5 163 Q 202.8 161.8 204 164.5 L 202.5 164 Q 196.5 165.3 197.5 163 Z " /><path fill="rgb(202,201,201)" stroke="rgb(202,201,201)" stroke-width="1" opacity="1" d="M 107.5 164 L 106.5 166 L 107.5 164 Z " /><path fill="rgb(202,201,201)" stroke="rgb(202,201,201)" stroke-width="1" opacity="1" d="M 20.5 165 L 21 169 L 12 168.5 L 20 168 L 20.5 165 Z " /><path fill="rgb(202,201,201)" stroke="rgb(202,201,201)" stroke-width="1" opacity="1" d="M 83.5 165 L 86 165.5 L 83.5 166 L 83.5 165 Z " /><path fill="rgb(202,201,201)" stroke="rgb(202,201,201)" stroke-width="1" opacity="1" d="M 131.5 165 L 132 169 L 123 168.5 L 131 168 L 131.5 165 Z " /><path fill="rgb(202,201,201)" stroke="rgb(202,201,201)" stroke-width="1" opacity="1" d="M 211.5 165 L 213.5 168 L 211.5 165 Z " /><path fill="rgb(202,201,201)" stroke="rgb(202,201,201)" stroke-width="1" opacity="1" d="M 270.5 165 L 271 167.5 L 269.5 169 L 261.5 169 L 261.5 168 L 269.5 168 L 270.5 165 Z " /><path fill="rgb(202,201,201)" stroke="rgb(202,201,201)" stroke-width="1" opacity="1" d="M 66.5 166 L 67 167.5 L 63.5 169 L 63.5 168 Q 67 169 66.5 166 Z " /><path fill="rgb(202,201,201)" stroke="rgb(202,201,201)" stroke-width="1" opacity="1" d="M 78.5 166 L 79.5 168 L 78.5 166 Z " /><path fill="rgb(202,201,201)" stroke="rgb(202,201,201)" stroke-width="1" opacity="1" d="M 162.5 166 L 163 167.5 Q 161.8 170 158 169 L 158.5 167 L 162 168 L 162.5 166 Z " /><path fill="rgb(202,201,201)" stroke="rgb(202,201,201)" stroke-width="1" opacity="1" d="M 174.5 166 L 175 169 L 171 168.5 L 174 168 L 174.5 166 Z " /><path fill="rgb(202,201,201)" stroke="rgb(202,201,201)" stroke-width="1" opacity="1" d="M 251.5 166 L 252 167.5 L 248.5 169 L 248.5 168 Q 252 169 251.5 166 Z " /><path fill="rgb(202,201,201)" stroke="rgb(202,201,201)" stroke-width="1" opacity="1" d="M 146.5 167 L 150 168.5 L 147.5 169 L 146.5 167 Z " /><path fill="rgb(202,201,201)" stroke="rgb(202,201,201)" stroke-width="1" opacity="1" d="M 204.5 167 L 209 168.5 L 205.5 169 L 204.5 167 Z " /><path fill="rgb(202,201,201)" stroke="rgb(202,201,201)" stroke-width="1" opacity="1" d="M 0.5 168 L 9 168.5 L 0.5 169 L 0.5 168 Z " /><path fill="rgb(202,201,201)" stroke="rgb(202,201,201)" stroke-width="1" opacity="1" d="M 22.5 168 L 25 168.5 L 22.5 169 L 22.5 168 Z " /><path fill="rgb(202,201,201)" stroke="rgb(202,201,201)" stroke-width="1" opacity="1" d="M 56.5 168 L 59 168.5 L 56.5 169 L 56.5 168 Z " /><path fill="rgb(202,201,201)" stroke="rgb(202,201,201)" stroke-width="1" opacity="1" d="M 95.5 168 L 102 168.5 L 95.5 169 L 95.5 168 Z " /><path fill="rgb(202,201,201)" stroke="rgb(202,201,201)" stroke-width="1" opacity="1" d="M 111.5 168 L 120 168.5 L 111.5 169 L 111.5 168 Z " /><path fill="rgb(202,201,201)" stroke="rgb(202,201,201)" stroke-width="1" opacity="1" d="M 192.5 168 L 196 168.5 L 192.5 169 L 192.5 168 Z " /><path fill="rgb(202,201,201)" stroke="rgb(202,201,201)" stroke-width="1" opacity="1" d="M 229.5 168 L 238 168.5 L 229.5 169 L 229.5 168 Z " /><path fill="rgb(202,201,201)" stroke="rgb(202,201,201)" stroke-width="1" opacity="1" d="M 241.5 168 L 244 168.5 L 241.5 169 L 241.5 168 Z " /><path fill="rgb(202,201,201)" stroke="rgb(202,201,201)" stroke-width="1" opacity="1" d="M 283.5 168 L 287 168.5 L 283.5 169 L 283.5 168 Z " /><path fill="rgb(255,255,255)" stroke="rgb(255,255,255)" stroke-width="1" opacity="1" d="M 0 0 L 116 0 L 116 125.5 L 117.5 127 L 131.5 127 L 133 125.5 L 133 0 L 137 0.5 L 137 24 L 153 24 L 153 0.5 L 157 0 L 157 126.5 L 157.5 127 L 173 127 L 173 40.5 L 173.5 40 L 185 40 L 185 22 L 173 22 L 173 0 L 298 0 L 298 148 L 288 148 L 288 152 L 291 152.5 L 291 169 L 287 168.5 L 287 148.5 L 284.5 148 L 283 149.5 L 283 159.5 L 283.5 161 L 276.5 148 L 273 148.5 L 273 168.5 L 270.5 169 L 271 167.5 L 271 165 L 265 165 L 265 161 Q 272.1 163.4 270 157 Q 262.5 159.5 265 152 L 271 152 L 271 149.5 L 269.5 148 L 261 148 L 261 168.5 L 259 169 L 259 148.5 Q 259 147.5 254.5 148 L 253 149.5 L 249.5 162 L 246 149.5 L 244.5 148 L 241 148.5 L 241 168.5 L 238 169 L 238 165 L 232 165 L 232 161 L 238 161 L 238 157 Q 233.4 158.3 232 155.5 L 232 152 L 238 152 L 238 148 L 229 148 L 229 168.5 Q 228.8 169.8 222.5 169 L 226 164.5 L 227 158 L 216 158 L 216 162 L 223 162.5 Q 222 166 216.5 165 L 214 164 Q 212.3 161.6 213 155.5 L 214 153 L 219.5 152 L 222 153 Q 220.8 156.7 226 155 L 226 152.5 L 221.5 148 Q 213.2 146.7 211 151.5 Q 208 154.5 209 161.5 L 213.5 168 L 215 168.5 L 209.5 169 L 202 148 L 198 149.5 L 192 169 L 190 168.5 L 191 167.5 L 191 148 L 187 148.5 L 187 160.5 L 186 160.5 L 179.5 148 L 176 148.5 L 176 168.5 L 175 168.5 L 167.5 148 Q 164.2 146.9 165 149.5 L 157.5 169 L 157 148 L 152 148 L 152 150.5 L 148.5 161 L 147 159.5 L 144 148 L 139 148.5 L 139 169 L 132 169 L 132 165 L 127 164.5 L 127 148 L 123 148 L 123 168.5 L 120 169 L 121 165.5 L 115 165 L 115 161 Q 122.1 163.4 120 157 Q 112.5 159.5 115 152 L 121 151.5 L 119.5 148 L 111 148 L 111 169 L 102.5 169 L 102.5 168 Q 107.5 168.5 108 164.5 L 109 155.5 L 104.5 149 L 95 148 L 95 168.5 Q 94.8 169.8 88.5 169 L 92 164.5 L 94 158.5 Q 92.9 151.1 87.5 148 Q 80.3 146.8 78 150.5 Q 74.3 153.3 75 160.5 L 79.5 168 L 81 168.5 L 74 169 L 74 148.5 Q 74 147.5 69.5 148 L 68 149.5 L 64.5 162 L 61 149.5 L 59.5 148 L 56 148.5 L 56 169 L 47 169 L 47 165 L 41 165 L 41 161 L 47 161 L 47 157 L 41 157 L 41 152 L 47 152 L 47 148 L 38.5 148 L 37.5 149 L 36.5 148 L 27 148 L 27 152 L 30 152.5 L 30 169 L 25 169 L 25 148.5 L 22 148 L 21.5 169 L 21 165 L 16 164.5 L 16 149.5 L 12 148 L 12 168.5 L 9 169 L 9 165 Q 1.9 167.4 4 161 Q 11.1 163.4 9 157 Q 1.5 159.5 4 152 Q 11.1 154.4 9 148 L 0.5 148 L 0 147.5 L 0 0 Z M 63 37 L 51 40 L 40 46 Q 25 57 21 79 L 22 95 L 30 112 Q 40 125 59 130 L 76 130 Q 88 128 96 121 Q 105 114 110 102 L 110 100 L 94 100 L 92 103 L 85 110 L 71 115 Q 56 115 49 108 Q 42 103 39 94 L 40 91 L 113 91 L 113 75 L 112 71 L 103 54 Q 96 45 85 40 L 73 37 L 63 37 Z M 137 37 L 137 127 L 138 127 L 153 127 L 153 38 L 153 37 L 137 37 Z M 214 38 Q 201 41 193 48 Q 179 58 176 79 L 177 95 L 185 112 Q 195 125 214 130 L 231 130 Q 243 128 251 121 Q 260 114 265 103 L 265 100 L 249 100 L 247 103 L 240 110 L 226 115 L 215 114 L 204 108 Q 196 102 194 92 L 267 92 L 268 91 L 268 76 L 267 71 L 260 57 Q 252 45 239 40 Q 229 36 214 38 Z " /><path fill="rgb(255,255,255)" stroke="rgb(255,255,255)" stroke-width="1" opacity="1" d="M 61.5 53 L 76.5 54 Q 85.5 57.5 91 64.5 Q 95.3 69.8 96 78 L 39.5 78 Q 38.5 78 39 73.5 Q 42.8 62.8 51.5 57 L 61.5 53 Z " /><path fill="rgb(255,255,255)" stroke="rgb(255,255,255)" stroke-width="1" opacity="1" d="M 218.5 53 Q 237.4 52.6 245 63.5 Q 250.3 69.3 251 78 L 194.5 78 L 194 74.5 Q 197.1 63.6 205.5 58 L 218.5 53 Z " /><path fill="rgb(255,255,255)" stroke="rgb(255,255,255)" stroke-width="1" opacity="1" d="M 34 152 L 37 152.5 L 37 169 L 33 168.5 L 34 167.5 L 34 152 Z " /><path fill="rgb(255,255,255)" stroke="rgb(255,255,255)" stroke-width="1" opacity="1" d="M 82.5 152 Q 88 151 89 154.5 L 90 159.5 L 86.5 165 Q 81 166 80 162.5 L 79 156.5 L 82.5 152 Z " /><path fill="rgb(255,255,255)" stroke="rgb(255,255,255)" stroke-width="1" opacity="1" d="M 99 152 L 105 155.5 Q 106.5 162.5 102.5 164 L 99 165 L 99 152 Z " /><path fill="rgb(255,255,255)" stroke="rgb(255,255,255)" stroke-width="1" opacity="1" d="M 295 152 L 298 152.5 L 298 169 L 295 168.5 L 295 152 Z " /><path fill="rgb(255,255,255)" stroke="rgb(255,255,255)" stroke-width="1" opacity="1" d="M 166.5 155 L 168 160 Q 164.3 161.5 165 158.5 L 166.5 155 Z " /><path fill="rgb(255,255,255)" stroke="rgb(255,255,255)" stroke-width="1" opacity="1" d="M 59.5 156 L 63 169 L 59 168.5 L 59.5 156 Z " /><path fill="rgb(255,255,255)" stroke="rgb(255,255,255)" stroke-width="1" opacity="1" d="M 180.5 156 L 186 169 L 180 169 L 180.5 156 Z " /><path fill="rgb(255,255,255)" stroke="rgb(255,255,255)" stroke-width="1" opacity="1" d="M 200.5 156 L 202 159.5 L 199 160 L 200.5 156 Z " /><path fill="rgb(255,255,255)" stroke="rgb(255,255,255)" stroke-width="1" opacity="1" d="M 244.5 156 L 248 169 L 244 168.5 L 244.5 156 Z " /><path fill="rgb(255,255,255)" stroke="rgb(255,255,255)" stroke-width="1" opacity="1" d="M 69.5 157 L 70 169 L 66 168.5 L 69.5 157 Z " /><path fill="rgb(255,255,255)" stroke="rgb(255,255,255)" stroke-width="1" opacity="1" d="M 254.5 157 L 255 169 L 251 168.5 L 254.5 157 Z " /><path fill="rgb(255,255,255)" stroke="rgb(255,255,255)" stroke-width="1" opacity="1" d="M 277.5 157 L 283 169 L 277 169 L 277.5 157 Z " /><path fill="rgb(255,255,255)" stroke="rgb(255,255,255)" stroke-width="1" opacity="1" d="M 143.5 158 L 147 168.5 L 143 169 L 143.5 158 Z " /><path fill="rgb(255,255,255)" stroke="rgb(255,255,255)" stroke-width="1" opacity="1" d="M 152.5 159 L 153 167.5 L 154 168.5 L 150 169 L 152.5 159 Z " /><path fill="rgb(255,255,255)" stroke="rgb(255,255,255)" stroke-width="1" opacity="1" d="M 164.5 164 L 170 164 L 170 166.5 L 171 169 L 162 168.5 L 164.5 164 Z " /><path fill="rgb(255,255,255)" stroke="rgb(255,255,255)" stroke-width="1" opacity="1" d="M 197 164 Q 202.4 162.5 204 165.5 L 205 168.5 L 196 169 L 197 164 Z " /><path fill="rgb(7,3,4)" stroke="rgb(7,3,4)" stroke-width="1" opacity="1" d="M 117.5 0 L 118 125 L 130.5 125 L 131 124.5 L 131 0.5 L 132 0.5 L 132 125.5 L 131.5 126 L 117 126 L 117.5 0 Z " /><path fill="rgb(7,3,4)" stroke="rgb(7,3,4)" stroke-width="1" opacity="1" d="M 137.5 0 L 138 23 L 151 23 L 151 0.5 L 152 0.5 L 152 24 L 137 24 L 137.5 0 Z " /><path fill="rgb(7,3,4)" stroke="rgb(7,3,4)" stroke-width="1" opacity="1" d="M 158.5 0 L 159 125 L 171.5 125 L 172 124.5 L 172 40.5 L 173 40.5 L 173 125.5 L 172.5 126 L 158 126 L 158.5 0 Z " /><path fill="rgb(7,3,4)" stroke="rgb(7,3,4)" stroke-width="1" opacity="1" d="M 172.5 0 L 173 22 L 185 22 L 185 39 L 175 38.5 L 184 38 L 184 23 L 173.5 23 L 172 21.5 L 172.5 0 Z " /><path fill="rgb(7,3,4)" stroke="rgb(7,3,4)" stroke-width="1" opacity="1" d="M 60.5 38 L 75 38.5 L 60.5 39 L 60.5 38 Z " /><path fill="rgb(7,3,4)" stroke="rgb(7,3,4)" stroke-width="1" opacity="1" d="M 137 38 L 151.5 38 L 152 38.5 L 152 126 L 137.5 126 L 137 125.5 L 137 38 Z M 138 39 L 138 125 L 139 125 L 151 125 L 151 40 L 151 39 L 138 39 Z " /><path fill="rgb(7,3,4)" stroke="rgb(7,3,4)" stroke-width="1" opacity="1" d="M 218.5 38 L 227 38.5 L 218.5 39 L 218.5 38 Z " /><path fill="rgb(7,3,4)" stroke="rgb(7,3,4)" stroke-width="1" opacity="1" d="M 55.5 39 L 59 39.5 Q 50.1 40.6 44.5 45 L 45.5 43 L 55.5 39 Z " /><path fill="rgb(7,3,4)" stroke="rgb(7,3,4)" stroke-width="1" opacity="1" d="M 76.5 39 L 79 39.5 L 76.5 40 L 76.5 39 Z " /><path fill="rgb(7,3,4)" stroke="rgb(7,3,4)" stroke-width="1" opacity="1" d="M 212.5 39 L 216 39.5 L 212.5 40 L 212.5 39 Z " /><path fill="rgb(7,3,4)" stroke="rgb(7,3,4)" stroke-width="1" opacity="1" d="M 228.5 39 L 233 39.5 L 228.5 40 L 228.5 39 Z " /><path fill="rgb(7,3,4)" stroke="rgb(7,3,4)" stroke-width="1" opacity="1" d="M 80.5 40 L 85 41.5 L 83.5 42 L 80.5 41 L 80.5 40 Z " /><path fill="rgb(7,3,4)" stroke="rgb(7,3,4)" stroke-width="1" opacity="1" d="M 208.5 40 L 211 40.5 L 208.5 41 L 208.5 40 Z " /><path fill="rgb(7,3,4)" stroke="rgb(7,3,4)" stroke-width="1" opacity="1" d="M 234.5 40 L 239 41.5 L 237.5 42 L 234.5 41 L 234.5 40 Z " /><path fill="rgb(7,3,4)" stroke="rgb(7,3,4)" stroke-width="1" opacity="1" d="M 205.5 41 L 207 41.5 L 195.5 48 L 197.5 45 L 205.5 41 Z " /><path fill="rgb(7,3,4)" stroke="rgb(7,3,4)" stroke-width="1" opacity="1" d="M 240.5 42 L 245 44.5 L 243.5 44 Q 239.7 43.8 240.5 42 Z " /><path fill="rgb(7,3,4)" stroke="rgb(7,3,4)" stroke-width="1" opacity="1" d="M 90.5 44 L 102 53.5 L 96.5 49 Q 91.3 47.3 90.5 44 Z " /><path fill="rgb(7,3,4)" stroke="rgb(7,3,4)" stroke-width="1" opacity="1" d="M 42.5 45 L 41.5 47 L 42.5 45 Z " /><path fill="rgb(7,3,4)" stroke="rgb(7,3,4)" stroke-width="1" opacity="1" d="M 246.5 45 L 253 50.5 L 248.5 47 L 246.5 45 Z " /><path fill="rgb(7,3,4)" stroke="rgb(7,3,4)" stroke-width="1" opacity="1" d="M 39.5 47 L 31.5 56 L 39.5 47 Z " /><path fill="rgb(7,3,4)" stroke="rgb(7,3,4)" stroke-width="1" opacity="1" d="M 193.5 48 L 187 55.5 L 183.5 61 L 184 59.5 Q 187 52 193.5 48 Z " /><path fill="rgb(7,3,4)" stroke="rgb(7,3,4)" stroke-width="1" opacity="1" d="M 64.5 51 L 70 51.5 L 64.5 52 L 64.5 51 Z " /><path fill="rgb(7,3,4)" stroke="rgb(7,3,4)" stroke-width="1" opacity="1" d="M 59.5 52 L 63 52.5 L 59.5 53 L 59.5 52 Z " /><path fill="rgb(7,3,4)" stroke="rgb(7,3,4)" stroke-width="1" opacity="1" d="M 72.5 52 L 75 52.5 L 72.5 53 L 72.5 52 Z " /><path fill="rgb(7,3,4)" stroke="rgb(7,3,4)" stroke-width="1" opacity="1" d="M 215.5 52 L 221 52.5 L 215.5 53 L 215.5 52 Z " /><path fill="rgb(7,3,4)" stroke="rgb(7,3,4)" stroke-width="1" opacity="1" d="M 224.5 52 L 229 52.5 L 224.5 53 L 224.5 52 Z " /><path fill="rgb(7,3,4)" stroke="rgb(7,3,4)" stroke-width="1" opacity="1" d="M 56.5 53 L 58 53.5 L 51.5 57 L 52.5 55 L 56.5 53 Z " /><path fill="rgb(7,3,4)" stroke="rgb(7,3,4)" stroke-width="1" opacity="1" d="M 230.5 53 Q 238.3 54.2 242 59.5 L 238.5 57 L 230.5 54 L 230.5 53 Z " /><path fill="rgb(7,3,4)" stroke="rgb(7,3,4)" stroke-width="1" opacity="1" d="M 255.5 53 L 261 59.5 L 259 58.5 L 255.5 53 Z " /><path fill="rgb(7,3,4)" stroke="rgb(7,3,4)" stroke-width="1" opacity="1" d="M 79.5 54 L 82 55.5 L 80.5 55 L 79.5 54 Z " /><path fill="rgb(7,3,4)" stroke="rgb(7,3,4)" stroke-width="1" opacity="1" d="M 102.5 55 L 104.5 58 L 102.5 55 Z " /><path fill="rgb(7,3,4)" stroke="rgb(7,3,4)" stroke-width="1" opacity="1" d="M 83.5 56 L 84.5 58 L 83.5 56 Z " /><path fill="rgb(7,3,4)" stroke="rgb(7,3,4)" stroke-width="1" opacity="1" d="M 206.5 56 L 205.5 58 L 198 64.5 L 196.5 67 L 197 65.5 L 204.5 57 L 206.5 56 Z " /><path fill="rgb(7,3,4)" stroke="rgb(7,3,4)" stroke-width="1" opacity="1" d="M 30.5 57 L 29.5 59 L 30.5 57 Z " /><path fill="rgb(7,3,4)" stroke="rgb(7,3,4)" stroke-width="1" opacity="1" d="M 49.5 57 L 42.5 65 L 49.5 57 Z " /><path fill="rgb(7,3,4)" stroke="rgb(7,3,4)" stroke-width="1" opacity="1" d="M 86.5 58 L 90.5 63 L 86.5 58 Z " /><path fill="rgb(7,3,4)" stroke="rgb(7,3,4)" stroke-width="1" opacity="1" d="M 105.5 59 L 109 65.5 L 108 65.5 L 105.5 59 Z " /><path fill="rgb(7,3,4)" stroke="rgb(7,3,4)" stroke-width="1" opacity="1" d="M 28.5 60 L 28 61.5 L 26.5 65 L 26 63.5 L 28.5 60 Z " /><path fill="rgb(7,3,4)" stroke="rgb(7,3,4)" stroke-width="1" opacity="1" d="M 243.5 60 L 244.5 62 L 243.5 60 Z " /><path fill="rgb(7,3,4)" stroke="rgb(7,3,4)" stroke-width="1" opacity="1" d="M 261.5 61 L 264 65.5 L 263 65.5 L 261.5 61 Z " /><path fill="rgb(7,3,4)" stroke="rgb(7,3,4)" stroke-width="1" opacity="1" d="M 245.5 63 L 247.5 66 L 245.5 63 Z " /><path fill="rgb(7,3,4)" stroke="rgb(7,3,4)" stroke-width="1" opacity="1" d="M 91.5 64 Q 96.6 67.9 97 76.5 L 96 76.5 Q 95.3 67.9 91.5 64 Z " /><path fill="rgb(7,3,4)" stroke="rgb(7,3,4)" stroke-width="1" opacity="1" d="M 25.5 66 L 26 67.5 L 23.5 75 L 23 71.5 L 25.5 66 Z " /><path fill="rgb(7,3,4)" stroke="rgb(7,3,4)" stroke-width="1" opacity="1" d="M 41.5 66 L 41 67.5 L 39.5 71 L 39 69.5 L 41.5 66 Z " /><path fill="rgb(7,3,4)" stroke="rgb(7,3,4)" stroke-width="1" opacity="1" d="M 180.5 66 L 181 67.5 L 179.5 71 L 179 68.5 L 180.5 66 Z " /><path fill="rgb(7,3,4)" stroke="rgb(7,3,4)" stroke-width="1" opacity="1" d="M 109.5 67 L 111 71.5 L 110 71.5 L 109.5 67 Z " /><path fill="rgb(7,3,4)" stroke="rgb(7,3,4)" stroke-width="1" opacity="1" d="M 195.5 68 L 195 69.5 L 194.5 71 L 194 69.5 L 195.5 68 Z " /><path fill="rgb(7,3,4)" stroke="rgb(7,3,4)" stroke-width="1" opacity="1" d="M 265.5 70 Q 267.8 72.8 267 78.5 L 266 78.5 L 265.5 70 Z " /><path fill="rgb(7,3,4)" stroke="rgb(7,3,4)" stroke-width="1" opacity="1" d="M 250.5 71 L 252 76.5 L 251 76.5 L 250.5 71 Z " /><path fill="rgb(7,3,4)" stroke="rgb(7,3,4)" stroke-width="1" opacity="1" d="M 178.5 72 L 179 74.5 L 178 74.5 L 178.5 72 Z " /><path fill="rgb(7,3,4)" stroke="rgb(7,3,4)" stroke-width="1" opacity="1" d="M 193.5 72 L 194 74.5 L 193 79 L 251 79.5 L 193.5 80 Q 191.3 79.3 192 75.5 L 193.5 72 Z " /><path fill="rgb(7,3,4)" stroke="rgb(7,3,4)" stroke-width="1" opacity="1" d="M 111.5 73 L 112 77.5 L 111 77.5 L 111.5 73 Z " /><path fill="rgb(7,3,4)" stroke="rgb(7,3,4)" stroke-width="1" opacity="1" d="M 37.5 75 L 38 77.5 L 37 77.5 L 37.5 75 Z " /><path fill="rgb(7,3,4)" stroke="rgb(7,3,4)" stroke-width="1" opacity="1" d="M 22.5 76 L 23 90.5 L 22 90.5 L 22.5 76 Z " /><path fill="rgb(7,3,4)" stroke="rgb(7,3,4)" stroke-width="1" opacity="1" d="M 177.5 76 L 178 90.5 L 177 90.5 L 177.5 76 Z " /><path fill="rgb(7,3,4)" stroke="rgb(7,3,4)" stroke-width="1" opacity="1" d="M 39.5 79 L 96 79.5 L 39.5 80 L 39.5 79 Z " /><path fill="rgb(7,3,4)" stroke="rgb(7,3,4)" stroke-width="1" opacity="1" d="M 267.5 82 L 268 84.5 L 267 84.5 L 267.5 82 Z " /><path fill="rgb(7,3,4)" stroke="rgb(7,3,4)" stroke-width="1" opacity="1" d="M 111.5 88 L 112 91 L 38.5 91 L 38 92.5 L 42 100.5 L 40 99.5 L 37 91.5 L 38.5 90 L 111 90 L 111.5 88 Z " /><path fill="rgb(7,3,4)" stroke="rgb(7,3,4)" stroke-width="1" opacity="1" d="M 266.5 88 L 267 91 L 193.5 91 L 193 92.5 L 199 103.5 L 196 101.5 L 192 91.5 L 193.5 90 L 266 90 L 266.5 88 Z " /><path fill="rgb(7,3,4)" stroke="rgb(7,3,4)" stroke-width="1" opacity="1" d="M 23.5 92 L 26 100.5 L 25 100.5 Q 22 97.1 23.5 92 Z " /><path fill="rgb(7,3,4)" stroke="rgb(7,3,4)" stroke-width="1" opacity="1" d="M 178.5 92 L 180 98.5 L 179 98.5 L 178.5 92 Z " /><path fill="rgb(7,3,4)" stroke="rgb(7,3,4)" stroke-width="1" opacity="1" d="M 180.5 100 Q 183.5 109 190 114.5 L 185 110.5 L 180 101.5 L 180.5 100 Z " /><path fill="rgb(7,3,4)" stroke="rgb(7,3,4)" stroke-width="1" opacity="1" d="M 93.5 101 L 92.5 103 L 93.5 101 Z " /><path fill="rgb(7,3,4)" stroke="rgb(7,3,4)" stroke-width="1" opacity="1" d="M 108.5 101 L 109 102.5 Q 104.1 114.1 94.5 121 L 103 111.5 L 108.5 101 Z " /><path fill="rgb(7,3,4)" stroke="rgb(7,3,4)" stroke-width="1" opacity="1" d="M 248.5 101 L 263.5 101 L 264 102.5 L 262.5 105 L 262 103.5 L 262.5 102 L 248.5 102 L 248 103.5 L 238.5 112 L 239.5 110 L 247 103.5 L 248.5 101 Z " /><path fill="rgb(7,3,4)" stroke="rgb(7,3,4)" stroke-width="1" opacity="1" d="M 26.5 102 L 29 106.5 L 27 105.5 L 26.5 102 Z " /><path fill="rgb(7,3,4)" stroke="rgb(7,3,4)" stroke-width="1" opacity="1" d="M 42.5 102 L 44.5 105 L 42.5 102 Z " /><path fill="rgb(7,3,4)" stroke="rgb(7,3,4)" stroke-width="1" opacity="1" d="M 91.5 104 L 86.5 110 L 91.5 104 Z " /><path fill="rgb(7,3,4)" stroke="rgb(7,3,4)" stroke-width="1" opacity="1" d="M 199.5 105 L 202.5 109 L 199.5 105 Z " /><path fill="rgb(7,3,4)" stroke="rgb(7,3,4)" stroke-width="1" opacity="1" d="M 45.5 106 L 46.5 108 L 45.5 106 Z " /><path fill="rgb(7,3,4)" stroke="rgb(7,3,4)" stroke-width="1" opacity="1" d="M 261.5 106 L 261 107.5 Q 257.3 116.3 249.5 121 L 258 111.5 L 261.5 106 Z " /><path fill="rgb(7,3,4)" stroke="rgb(7,3,4)" stroke-width="1" opacity="1" d="M 29.5 108 L 30.5 110 L 29.5 108 Z " /><path fill="rgb(7,3,4)" stroke="rgb(7,3,4)" stroke-width="1" opacity="1" d="M 48.5 108 L 50.5 111 L 48.5 108 Z " /><path fill="rgb(7,3,4)" stroke="rgb(7,3,4)" stroke-width="1" opacity="1" d="M 204.5 109 L 205.5 111 L 204.5 109 Z " /><path fill="rgb(7,3,4)" stroke="rgb(7,3,4)" stroke-width="1" opacity="1" d="M 84.5 110 L 83.5 112 L 84.5 110 Z " /><path fill="rgb(7,3,4)" stroke="rgb(7,3,4)" stroke-width="1" opacity="1" d="M 31.5 111 L 44 122.5 L 42.5 122 L 31.5 111 Z " /><path fill="rgb(7,3,4)" stroke="rgb(7,3,4)" stroke-width="1" opacity="1" d="M 52.5 111 L 57 113.5 L 55.5 114 L 52.5 111 Z " /><path fill="rgb(7,3,4)" stroke="rgb(7,3,4)" stroke-width="1" opacity="1" d="M 207.5 111 L 212 113.5 L 210.5 114 L 207.5 111 Z " /><path fill="rgb(7,3,4)" stroke="rgb(7,3,4)" stroke-width="1" opacity="1" d="M 78.5 113 L 80 113.5 Q 74 118 61.5 116 L 58 114.5 L 60.5 114 L 61.5 115 L 74.5 115 L 78.5 113 Z " /><path fill="rgb(7,3,4)" stroke="rgb(7,3,4)" stroke-width="1" opacity="1" d="M 230.5 114 L 233 114.5 Q 227.4 118 216.5 116 L 216.5 115 L 229.5 115 L 230.5 114 Z " /><path fill="rgb(7,3,4)" stroke="rgb(7,3,4)" stroke-width="1" opacity="1" d="M 192.5 117 L 199 122.5 L 197.5 122 L 192.5 117 Z " /><path fill="rgb(7,3,4)" stroke="rgb(7,3,4)" stroke-width="1" opacity="1" d="M 92.5 121 L 91.5 123 L 89.5 124 L 90.5 122 L 92.5 121 Z " /><path fill="rgb(7,3,4)" stroke="rgb(7,3,4)" stroke-width="1" opacity="1" d="M 247.5 121 L 246.5 123 L 244.5 124 L 245.5 122 L 247.5 121 Z " /><path fill="rgb(7,3,4)" stroke="rgb(7,3,4)" stroke-width="1" opacity="1" d="M 45.5 123 L 50 125.5 L 48.5 126 L 45.5 123 Z " /><path fill="rgb(7,3,4)" stroke="rgb(7,3,4)" stroke-width="1" opacity="1" d="M 200.5 123 L 205 125.5 L 203.5 126 L 200.5 123 Z " /><path fill="rgb(7,3,4)" stroke="rgb(7,3,4)" stroke-width="1" opacity="1" d="M 84.5 125 L 86 125.5 L 78.5 128 L 78.5 127 L 84.5 125 Z " /><path fill="rgb(7,3,4)" stroke="rgb(7,3,4)" stroke-width="1" opacity="1" d="M 239.5 125 L 241 125.5 L 233.5 128 L 233.5 127 L 239.5 125 Z " /><path fill="rgb(7,3,4)" stroke="rgb(7,3,4)" stroke-width="1" opacity="1" d="M 51.5 126 L 56 127.5 L 53.5 128 L 51.5 126 Z " /><path fill="rgb(7,3,4)" stroke="rgb(7,3,4)" stroke-width="1" opacity="1" d="M 206.5 126 L 211 127.5 L 208.5 128 L 206.5 126 Z " /><path fill="rgb(7,3,4)" stroke="rgb(7,3,4)" stroke-width="1" opacity="1" d="M 57.5 128 L 62 128.5 L 57.5 129 L 57.5 128 Z " /><path fill="rgb(7,3,4)" stroke="rgb(7,3,4)" stroke-width="1" opacity="1" d="M 73.5 128 L 77 128.5 L 73.5 129 L 73.5 128 Z " /><path fill="rgb(7,3,4)" stroke="rgb(7,3,4)" stroke-width="1" opacity="1" d="M 212.5 128 L 217 128.5 L 212.5 129 L 212.5 128 Z " /><path fill="rgb(7,3,4)" stroke="rgb(7,3,4)" stroke-width="1" opacity="1" d="M 228.5 128 L 232 128.5 L 228.5 129 L 228.5 128 Z " /><path fill="rgb(7,3,4)" stroke="rgb(7,3,4)" stroke-width="1" opacity="1" d="M 63.5 129 L 71 129.5 L 63.5 130 L 63.5 129 Z " /><path fill="rgb(7,3,4)" stroke="rgb(7,3,4)" stroke-width="1" opacity="1" d="M 218.5 129 L 226 129.5 L 218.5 130 L 218.5 129 Z " /><path fill="rgb(7,3,4)" stroke="rgb(7,3,4)" stroke-width="1" opacity="1" d="M 1.5 149 L 9 149 L 9 152 L 3 152 L 3 157 L 9 157.5 L 3.5 158 Q 1 157 2 152.5 Q 3.4 149.9 8 150.5 L 1.5 150 L 1.5 149 Z " /><path fill="rgb(7,3,4)" stroke="rgb(7,3,4)" stroke-width="1" opacity="1" d="M 13.5 149 L 15 149.5 L 15 165 L 20 165 L 20 168 L 13 167.5 L 19 166.5 L 14 164.5 L 14 150.5 L 13.5 149 Z " /><path fill="rgb(7,3,4)" stroke="rgb(7,3,4)" stroke-width="1" opacity="1" d="M 22 149 L 25 149.5 L 25 168 L 22 167.5 L 24 167 L 23.5 150 L 22.5 164 L 22 149 Z " /><path fill="rgb(7,3,4)" stroke="rgb(7,3,4)" stroke-width="1" opacity="1" d="M 27 149 L 36 149 L 36 152 L 33 152.5 L 33 167.5 L 31.5 168 L 32 166.5 L 32 152.5 L 33.5 151 L 35 150.5 L 28.5 150 L 28.5 151 L 30 151.5 L 27 152 L 27 149 Z " /><path fill="rgb(7,3,4)" stroke="rgb(7,3,4)" stroke-width="1" opacity="1" d="M 38 149 L 46 149.5 L 39 150 L 39 167 L 44.5 167 L 44.5 166 L 41 165.5 L 46 165 L 46 168 L 38 168 L 38 149 Z " /><path fill="rgb(7,3,4)" stroke="rgb(7,3,4)" stroke-width="1" opacity="1" d="M 56 149 L 60 149.5 L 57 150 L 57.5 167 L 58.5 155 L 59 168 L 56 167.5 L 56 149 Z " /><path fill="rgb(7,3,4)" stroke="rgb(7,3,4)" stroke-width="1" opacity="1" d="M 69 149 L 73 149.5 L 73 168 L 71 167.5 L 71 154.5 L 72 150 L 69.5 151 L 69 149 Z " /><path fill="rgb(7,3,4)" stroke="rgb(7,3,4)" stroke-width="1" opacity="1" d="M 81.5 149 L 85.5 150 L 87.5 149 L 89.5 153 Q 90.8 150.8 92 153.5 L 91 161.5 L 92 163.5 L 88 165.5 Q 90.2 166.8 87.5 168 L 83.5 167 L 81.5 168 L 81.5 167 L 89 163.5 L 90 155.5 L 87.5 152 L 83.5 151 L 79.5 154 L 81.5 151 L 83 150.5 L 81.5 149 Z " /><path fill="rgb(7,3,4)" stroke="rgb(7,3,4)" stroke-width="1" opacity="1" d="M 96 149 L 103 149.5 L 97 150 L 97.5 152 L 102.5 151 L 105.5 155 Q 104 150.8 98 152 L 98 165 L 102.5 165 L 106 162.5 Q 105 167 98.5 166 L 97 165.5 Q 96.4 168.3 102.5 167 L 102.5 168 L 96 168 L 96 149 Z " /><path fill="rgb(7,3,4)" stroke="rgb(7,3,4)" stroke-width="1" opacity="1" d="M 112.5 149 L 120 149 L 120 152 L 114 152 L 114 157 L 120 157 L 120 160 L 114 160 L 114 165 L 120 165 L 120 168 L 112 167.5 L 119 166.5 Q 114.4 167.1 113 164.5 Q 112 160 114.5 159 L 119 158.5 Q 114.4 159.1 113 156.5 Q 112 152 114.5 151 L 119 150.5 L 112.5 150 L 112.5 149 Z " /><path fill="rgb(7,3,4)" stroke="rgb(7,3,4)" stroke-width="1" opacity="1" d="M 124.5 149 L 126 149.5 L 126 165 L 131 165 L 131 168 L 124 167.5 L 130 166.5 L 125 164.5 L 125 150.5 L 124.5 149 Z " /><path fill="rgb(7,3,4)" stroke="rgb(7,3,4)" stroke-width="1" opacity="1" d="M 140 149 Q 145.2 146.9 144 151.5 L 143 151.5 Q 143.7 148.9 141 150 L 142 155.5 L 142 168 L 140 167.5 L 140 149 Z " /><path fill="rgb(7,3,4)" stroke="rgb(7,3,4)" stroke-width="1" opacity="1" d="M 153.5 149 L 157 149.5 L 153 150 L 152.5 153 L 152 150.5 L 153.5 149 Z " /><path fill="rgb(7,3,4)" stroke="rgb(7,3,4)" stroke-width="1" opacity="1" d="M 165 149 Q 168.8 147.5 168 150.5 L 171 158.5 Q 170.3 161.8 165.5 161 L 165.5 160 Q 169.3 160.8 170 158.5 L 169.5 157 L 168 157.5 L 169 154.5 L 167 154.5 L 168 151.5 L 166 150.5 L 165 153.5 L 166 155.5 L 164 155.5 L 165 158.5 L 163 158.5 L 162.5 160 L 162 158.5 L 165 149 Z " /><path fill="rgb(7,3,4)" stroke="rgb(7,3,4)" stroke-width="1" opacity="1" d="M 177 149 L 181 150.5 L 185 159.5 L 184.5 161 L 186 161.5 L 186 163.5 L 187 167 L 189 166.5 L 189 150.5 L 188.5 149 L 190 149.5 L 190 168 L 186 166.5 L 181 155.5 L 181 153.5 L 180 150 L 178 150.5 L 178 166.5 L 178.5 168 L 177 167.5 L 177 149 Z " /><path fill="rgb(7,3,4)" stroke="rgb(7,3,4)" stroke-width="1" opacity="1" d="M 199 149 L 202 150.5 L 201.5 152 L 200.5 150 L 198.5 153 L 198 151.5 L 199 149 Z " /><path fill="rgb(7,3,4)" stroke="rgb(7,3,4)" stroke-width="1" opacity="1" d="M 214.5 149 L 219 150.5 L 217.5 151 L 214.5 150 L 212 153.5 L 216 151.5 Q 213.5 156.3 211 154.5 L 212 160.5 L 211 162.5 Q 213.5 160.7 216 165.5 L 212 163.5 L 214.5 167 L 216 167.5 L 214.5 168 Q 210.1 165.9 210 159.5 L 210 157.5 Q 210.1 151.1 214.5 149 Z " /><path fill="rgb(7,3,4)" stroke="rgb(7,3,4)" stroke-width="1" opacity="1" d="M 220.5 149 L 226 153.5 L 222.5 154 L 222.5 153 L 224 152.5 L 220.5 149 Z " /><path fill="rgb(7,3,4)" stroke="rgb(7,3,4)" stroke-width="1" opacity="1" d="M 229 149 L 238 149 L 238 152 L 232 152 L 232 157 L 237 157.5 L 232.5 158 Q 230 157 231 152.5 Q 232.4 149.9 237 150.5 L 230 150 L 230 167 L 236.5 167 L 236.5 166 Q 232 167 231 164.5 Q 230 160 232.5 159 L 237 159.5 L 232 160 L 232 165 L 238 165 L 238 168 L 229 168 L 229 149 Z " /><path fill="rgb(7,3,4)" stroke="rgb(7,3,4)" stroke-width="1" opacity="1" d="M 241 149 L 245 149.5 L 242 150 L 242.5 167 L 243.5 155 L 244 168 L 241 167.5 L 241 149 Z " /><path fill="rgb(7,3,4)" stroke="rgb(7,3,4)" stroke-width="1" opacity="1" d="M 254 149 L 258 149.5 L 258 168 L 256 167.5 L 256 156.5 L 257 150 L 254.5 151 L 254 149 Z " /><path fill="rgb(7,3,4)" stroke="rgb(7,3,4)" stroke-width="1" opacity="1" d="M 262.5 149 L 270 149 L 270 152 L 264 152 L 264 157 L 270 157 L 270 160 L 264 160 L 264 165 L 270 165 L 270 168 L 262 167.5 L 269 166.5 Q 264.4 167.1 263 164.5 Q 262 160 264.5 159 L 269 158.5 Q 264.4 159.1 263 156.5 Q 262 152 264.5 151 L 269 150.5 L 262.5 150 L 262.5 149 Z " /><path fill="rgb(7,3,4)" stroke="rgb(7,3,4)" stroke-width="1" opacity="1" d="M 274 149 Q 277.8 147.5 277 150.5 L 283.5 163 L 284 149 L 287 149 L 287 157.5 L 286 157.5 L 285.5 150 L 285 162.5 L 283 165.5 L 286 167 L 286.5 159 L 287 168 L 283 168 L 283 166.5 L 279 158.5 L 279.5 157 L 278 156.5 L 278.5 155 L 277 154.5 L 277 152.5 L 275.5 150 L 275 154.5 L 276 155.5 L 276 168 L 274 167.5 L 274 149 Z " /><path fill="rgb(7,3,4)" stroke="rgb(7,3,4)" stroke-width="1" opacity="1" d="M 289 149 L 297 149.5 L 290 150.5 L 293 152.5 L 294 168 L 292 167.5 L 292 152.5 L 289 152 L 289 149 Z " /><path fill="rgb(7,3,4)" stroke="rgb(7,3,4)" stroke-width="1" opacity="1" d="M 79.5 150 L 78.5 152 L 79.5 150 Z " /><path fill="rgb(7,3,4)" stroke="rgb(7,3,4)" stroke-width="1" opacity="1" d="M 104.5 150 L 106.5 153 L 104.5 150 Z " /><path fill="rgb(7,3,4)" stroke="rgb(7,3,4)" stroke-width="1" opacity="1" d="M 41.5 151 L 46 151.5 L 41.5 152 L 41.5 151 Z " /><path fill="rgb(7,3,4)" stroke="rgb(7,3,4)" stroke-width="1" opacity="1" d="M 60.5 151 L 64 162.5 L 62 163.5 L 60 156.5 L 60.5 151 Z " /><path fill="rgb(7,3,4)" stroke="rgb(7,3,4)" stroke-width="1" opacity="1" d="M 245.5 151 L 249 162.5 L 247 163.5 L 245 156.5 L 245.5 151 Z " /><path fill="rgb(7,3,4)" stroke="rgb(7,3,4)" stroke-width="1" opacity="1" d="M 68.5 152 L 69 157.5 L 66.5 165 L 65 162.5 L 68.5 152 Z " /><path fill="rgb(7,3,4)" stroke="rgb(7,3,4)" stroke-width="1" opacity="1" d="M 253.5 152 L 254 157.5 L 251.5 165 L 251 159.5 L 253.5 152 Z " /><path fill="rgb(7,3,4)" stroke="rgb(7,3,4)" stroke-width="1" opacity="1" d="M 77.5 153 L 79 156.5 L 78 156.5 L 77.5 155 L 76.5 162 L 76 155.5 L 77.5 153 Z " /><path fill="rgb(7,3,4)" stroke="rgb(7,3,4)" stroke-width="1" opacity="1" d="M 144.5 153 L 147 161.5 L 146.5 163 L 148 163.5 L 146.5 166 L 143 154.5 L 144.5 153 Z " /><path fill="rgb(7,3,4)" stroke="rgb(7,3,4)" stroke-width="1" opacity="1" d="M 202.5 153 L 203 154.5 L 201 155.5 L 202.5 153 Z " /><path fill="rgb(7,3,4)" stroke="rgb(7,3,4)" stroke-width="1" opacity="1" d="M 107.5 154 L 108 156.5 L 107 159.5 L 108 162.5 L 107 162.5 L 106 156.5 L 107.5 154 Z " /><path fill="rgb(7,3,4)" stroke="rgb(7,3,4)" stroke-width="1" opacity="1" d="M 151 154 Q 153.7 152.9 153 155.5 L 151 163 Q 148 164.3 149 160.5 L 151 154 Z " /><path fill="rgb(7,3,4)" stroke="rgb(7,3,4)" stroke-width="1" opacity="1" d="M 154.5 154 L 155 167 L 157 167.5 L 154 168 L 154.5 154 Z " /><path fill="rgb(7,3,4)" stroke="rgb(7,3,4)" stroke-width="1" opacity="1" d="M 197.5 154 L 199 157.5 L 198 160 Q 203.2 162.1 202 157.5 L 204 156.5 L 208 167.5 L 205 168 L 204 164.5 L 205 161.5 L 203.5 158 L 201.5 161 Q 196.8 161.8 196 158.5 L 196.5 157 L 198 157.5 L 197.5 154 Z " /><path fill="rgb(7,3,4)" stroke="rgb(7,3,4)" stroke-width="1" opacity="1" d="M 92.5 156 L 93 160.5 L 92 160.5 L 92.5 156 Z " /><path fill="rgb(7,3,4)" stroke="rgb(7,3,4)" stroke-width="1" opacity="1" d="M 41.5 157 Q 47.8 155.1 46 160 L 41 159.5 L 45 158.5 Q 40.6 158.9 41.5 157 Z " /><path fill="rgb(7,3,4)" stroke="rgb(7,3,4)" stroke-width="1" opacity="1" d="M 3.5 159 L 9 159.5 L 3 160 L 3 165 L 9 165 L 9 168 L 1 167.5 L 8 166.5 Q 3.4 167.1 2 164.5 Q 1 160 3.5 159 Z " /><path fill="rgb(7,3,4)" stroke="rgb(7,3,4)" stroke-width="1" opacity="1" d="M 217 159 L 226.5 159 L 227 160.5 L 225.5 160 Q 219.3 158.2 217.5 161 L 217 159 Z " /><path fill="rgb(7,3,4)" stroke="rgb(7,3,4)" stroke-width="1" opacity="1" d="M 161.5 161 L 162.5 163 Q 164 160.5 169.5 162 L 171.5 165 L 172.5 163 L 173 164.5 L 172 166.5 L 174 166.5 Q 174.8 168.8 172.5 168 L 170 163 L 163 163 L 163 165.5 L 162 168 L 159 167.5 L 161 166.5 L 160 164.5 L 161 164.5 L 161.5 166 L 162 163.5 L 161.5 161 Z " /><path fill="rgb(7,3,4)" stroke="rgb(7,3,4)" stroke-width="1" opacity="1" d="M 197.5 162 L 203 162.5 L 196.5 164 L 197.5 162 Z " /><path fill="rgb(7,3,4)" stroke="rgb(7,3,4)" stroke-width="1" opacity="1" d="M 225.5 162 L 226 163.5 L 220.5 168 L 217 166.5 L 220.5 165 L 220.5 167 L 223 165.5 L 222.5 164 Q 223.8 166.3 225 163.5 L 225.5 162 Z " /><path fill="rgb(7,3,4)" stroke="rgb(7,3,4)" stroke-width="1" opacity="1" d="M 79.5 163 L 81.5 166 L 79.5 163 Z " /><path fill="rgb(7,3,4)" stroke="rgb(7,3,4)" stroke-width="1" opacity="1" d="M 194.5 163 L 196 166.5 L 193 168 L 194.5 163 Z " /><path fill="rgb(7,3,4)" stroke="rgb(7,3,4)" stroke-width="1" opacity="1" d="M 106.5 164 L 104.5 167 L 106.5 164 Z " /><path fill="rgb(7,3,4)" stroke="rgb(7,3,4)" stroke-width="1" opacity="1" d="M 149.5 164 L 150 166.5 L 147.5 168 L 147.5 167 Q 150.4 167.7 149.5 164 Z " /><path fill="rgb(7,3,4)" stroke="rgb(7,3,4)" stroke-width="1" opacity="1" d="M 63.5 165 L 64.5 167 L 66 166.5 Q 66.7 169.5 63 168 L 63.5 165 Z " /><path fill="rgb(7,3,4)" stroke="rgb(7,3,4)" stroke-width="1" opacity="1" d="M 78.5 165 L 79.5 167 L 78.5 165 Z " /><path fill="rgb(7,3,4)" stroke="rgb(7,3,4)" stroke-width="1" opacity="1" d="M 248.5 165 L 249.5 167 L 251 166.5 Q 251.7 169.5 248 168 L 248.5 165 Z " /><path fill="rgb(35,29,31)" stroke="rgb(35,29,31)" stroke-width="1" opacity="1" d="M 173.5 39 L 185 39.5 L 173.5 40 L 173.5 39 Z " /><path fill="rgb(35,29,31)" stroke="rgb(35,29,31)" stroke-width="1" opacity="1" d="M 251.5 48 L 253.5 51 L 251.5 48 Z " /><path fill="rgb(35,29,31)" stroke="rgb(35,29,31)" stroke-width="1" opacity="1" d="M 36.5 49 L 33.5 53 L 36.5 49 Z " /><path fill="rgb(35,29,31)" stroke="rgb(35,29,31)" stroke-width="1" opacity="1" d="M 256.5 53 L 257.5 55 L 256.5 53 Z " /><path fill="rgb(35,29,31)" stroke="rgb(35,29,31)" stroke-width="1" opacity="1" d="M 85.5 58 L 90.5 64 L 85.5 58 Z " /><path fill="rgb(35,29,31)" stroke="rgb(35,29,31)" stroke-width="1" opacity="1" d="M 242.5 60 L 243.5 62 L 242.5 60 Z " /><path fill="rgb(35,29,31)" stroke="rgb(35,29,31)" stroke-width="1" opacity="1" d="M 96.5 77 L 97 79 L 38 78.5 L 95.5 78 L 96.5 77 Z " /><path fill="rgb(35,29,31)" stroke="rgb(35,29,31)" stroke-width="1" opacity="1" d="M 112.5 78 L 113 80.5 L 112 80.5 L 112.5 78 Z " /><path fill="rgb(35,29,31)" stroke="rgb(35,29,31)" stroke-width="1" opacity="1" d="M 267.5 78 L 268 80.5 L 267 80.5 L 267.5 78 Z " /><path fill="rgb(35,29,31)" stroke="rgb(35,29,31)" stroke-width="1" opacity="1" d="M 112.5 85 L 113 88.5 L 112 88.5 L 112.5 85 Z " /><path fill="rgb(35,29,31)" stroke="rgb(35,29,31)" stroke-width="1" opacity="1" d="M 267.5 86 L 268 88.5 L 267 88.5 L 267.5 86 Z " /><path fill="rgb(35,29,31)" stroke="rgb(35,29,31)" stroke-width="1" opacity="1" d="M 93.5 100 L 110 100.5 L 93.5 101 L 93.5 100 Z " /><path fill="rgb(35,29,31)" stroke="rgb(35,29,31)" stroke-width="1" opacity="1" d="M 248.5 100 L 265 100.5 L 248.5 101 L 248.5 100 Z " /><path fill="rgb(35,29,31)" stroke="rgb(35,29,31)" stroke-width="1" opacity="1" d="M 45.5 105 L 47.5 108 L 45.5 105 Z " /><path fill="rgb(35,29,31)" stroke="rgb(35,29,31)" stroke-width="1" opacity="1" d="M 200.5 105 L 202.5 108 L 200.5 105 Z " /><path fill="rgb(35,29,31)" stroke="rgb(35,29,31)" stroke-width="1" opacity="1" d="M 32.5 113 L 38.5 120 L 32.5 113 Z " /><path fill="rgb(35,29,31)" stroke="rgb(35,29,31)" stroke-width="1" opacity="1" d="M 187.5 113 L 188.5 115 L 187.5 113 Z " /><path fill="rgb(35,29,31)" stroke="rgb(35,29,31)" stroke-width="1" opacity="1" d="M 101.5 114 L 97.5 119 L 101.5 114 Z " /><path fill="rgb(35,29,31)" stroke="rgb(35,29,31)" stroke-width="1" opacity="1" d="M 256.5 114 L 252.5 119 L 256.5 114 Z " /><path fill="rgb(35,29,31)" stroke="rgb(35,29,31)" stroke-width="1" opacity="1" d="M 191.5 117 L 193.5 120 L 191.5 117 Z " /><path fill="rgb(35,29,31)" stroke="rgb(35,29,31)" stroke-width="1" opacity="1" d="M 46.5 149 L 47 151.5 L 46 151.5 L 46.5 149 Z " /><path fill="rgb(35,29,31)" stroke="rgb(35,29,31)" stroke-width="1" opacity="1" d="M 95.5 149 L 96 167.5 L 95 167.5 L 95.5 149 Z " /><path fill="rgb(35,29,31)" stroke="rgb(35,29,31)" stroke-width="1" opacity="1" d="M 111.5 149 L 112 167.5 L 111 167.5 L 111.5 149 Z " /><path fill="rgb(35,29,31)" stroke="rgb(35,29,31)" stroke-width="1" opacity="1" d="M 123.5 149 L 124 167.5 L 123 167.5 L 123.5 149 Z " /><path fill="rgb(35,29,31)" stroke="rgb(35,29,31)" stroke-width="1" opacity="1" d="M 187.5 149 L 188 163 L 186 162.5 L 187 161.5 L 187.5 149 Z " /><path fill="rgb(35,29,31)" stroke="rgb(35,29,31)" stroke-width="1" opacity="1" d="M 261.5 149 L 262 167.5 L 261 167.5 L 261.5 149 Z " /><path fill="rgb(35,29,31)" stroke="rgb(35,29,31)" stroke-width="1" opacity="1" d="M 273.5 149 L 274 167.5 L 273 167.5 L 273.5 149 Z " /><path fill="rgb(35,29,31)" stroke="rgb(35,29,31)" stroke-width="1" opacity="1" d="M 297.5 149 L 298 151.5 L 297 151.5 L 297.5 149 Z " /><path fill="rgb(35,29,31)" stroke="rgb(35,29,31)" stroke-width="1" opacity="1" d="M 0.5 150 L 1 167.5 L 0 167.5 L 0.5 150 Z " /><path fill="rgb(35,29,31)" stroke="rgb(35,29,31)" stroke-width="1" opacity="1" d="M 105.5 150 L 106.5 152 L 105.5 150 Z " /><path fill="rgb(35,29,31)" stroke="rgb(35,29,31)" stroke-width="1" opacity="1" d="M 223.5 150 L 224.5 152 L 223.5 150 Z " /><path fill="rgb(35,29,31)" stroke="rgb(35,29,31)" stroke-width="1" opacity="1" d="M 139.5 151 L 140 167.5 L 139 167.5 L 139.5 151 Z " /><path fill="rgb(35,29,31)" stroke="rgb(35,29,31)" stroke-width="1" opacity="1" d="M 30.5 152 L 31 166.5 L 30 166.5 L 30.5 152 Z " /><path fill="rgb(35,29,31)" stroke="rgb(35,29,31)" stroke-width="1" opacity="1" d="M 40.5 152 L 41 156.5 L 40 156.5 L 40.5 152 Z " /><path fill="rgb(35,29,31)" stroke="rgb(35,29,31)" stroke-width="1" opacity="1" d="M 87.5 152 L 88.5 154 L 87.5 152 Z " /><path fill="rgb(35,29,31)" stroke="rgb(35,29,31)" stroke-width="1" opacity="1" d="M 294.5 152 L 295 167.5 L 294 167.5 L 294.5 152 Z " /><path fill="rgb(35,29,31)" stroke="rgb(35,29,31)" stroke-width="1" opacity="1" d="M 70.5 153 L 71 155 L 69 154.5 L 70.5 153 Z " /><path fill="rgb(35,29,31)" stroke="rgb(35,29,31)" stroke-width="1" opacity="1" d="M 12.5 154 L 13 159.5 L 12 159.5 L 12.5 154 Z " /><path fill="rgb(35,29,31)" stroke="rgb(35,29,31)" stroke-width="1" opacity="1" d="M 142.5 154 L 143.5 156 L 142.5 154 Z " /><path fill="rgb(35,29,31)" stroke="rgb(35,29,31)" stroke-width="1" opacity="1" d="M 179 154 L 181 154.5 L 180 155.5 L 179.5 168 L 179 154 Z " /><path fill="rgb(35,29,31)" stroke="rgb(35,29,31)" stroke-width="1" opacity="1" d="M 254.5 154 L 256 154.5 L 256 167.5 L 255 167.5 L 255 155.5 L 254.5 154 Z " /><path fill="rgb(35,29,31)" stroke="rgb(35,29,31)" stroke-width="1" opacity="1" d="M 276.5 154 L 277.5 156 L 276.5 154 Z " /><path fill="rgb(35,29,31)" stroke="rgb(35,29,31)" stroke-width="1" opacity="1" d="M 78.5 157 L 79 159.5 L 78 159.5 L 78.5 157 Z " /><path fill="rgb(35,29,31)" stroke="rgb(35,29,31)" stroke-width="1" opacity="1" d="M 108.5 157 L 109 160.5 L 108 160.5 L 108.5 157 Z " /><path fill="rgb(35,29,31)" stroke="rgb(35,29,31)" stroke-width="1" opacity="1" d="M 209.5 157 L 210 159.5 L 209 159.5 L 209.5 157 Z " /><path fill="rgb(35,29,31)" stroke="rgb(35,29,31)" stroke-width="1" opacity="1" d="M 237.5 157 L 238 159.5 L 237 159.5 L 237.5 157 Z " /><path fill="rgb(35,29,31)" stroke="rgb(35,29,31)" stroke-width="1" opacity="1" d="M 217.5 158 L 227 158.5 L 217 159 Q 215.6 163 222.5 161 L 222.5 162 L 216 162 L 216 159.5 L 217.5 158 Z " /><path fill="rgb(35,29,31)" stroke="rgb(35,29,31)" stroke-width="1" opacity="1" d="M 40.5 160 L 41 164.5 L 40 164.5 L 40.5 160 Z " /><path fill="rgb(35,29,31)" stroke="rgb(35,29,31)" stroke-width="1" opacity="1" d="M 12.5 162 L 13 166.5 L 12 166.5 L 12.5 162 Z " /><path fill="rgb(35,29,31)" stroke="rgb(35,29,31)" stroke-width="1" opacity="1" d="M 70.5 162 L 71 167.5 L 70 167.5 L 70.5 162 Z " /><path fill="rgb(35,29,31)" stroke="rgb(35,29,31)" stroke-width="1" opacity="1" d="M 147.5 162 L 148.5 164 L 147.5 162 Z " /><path fill="rgb(35,29,31)" stroke="rgb(35,29,31)" stroke-width="1" opacity="1" d="M 88.5 163 L 87.5 165 L 88.5 163 Z " /><path fill="rgb(35,29,31)" stroke="rgb(35,29,31)" stroke-width="1" opacity="1" d="M 222.5 163 L 221.5 165 L 222.5 163 Z " /><path fill="rgb(35,29,31)" stroke="rgb(35,29,31)" stroke-width="1" opacity="1" d="M 46.5 165 L 47 167.5 L 46 167.5 L 46.5 165 Z " /><path fill="rgb(35,29,31)" stroke="rgb(35,29,31)" stroke-width="1" opacity="1" d="M 224.5 165 L 222.5 168 L 224.5 165 Z " /><path fill="rgb(30,24,26)" stroke="rgb(30,24,26)" stroke-width="1" opacity="1" d="M 118 0 L 130.5 0 L 131 0.5 L 131 125 L 118.5 125 L 118 124.5 L 118 0 Z " /><path fill="rgb(30,24,26)" stroke="rgb(30,24,26)" stroke-width="1" opacity="1" d="M 138 0 L 151 0 L 151 23 L 138 23 L 138 0 Z " /><path fill="rgb(30,24,26)" stroke="rgb(30,24,26)" stroke-width="1" opacity="1" d="M 159 0 L 172 0 L 172 21.5 L 173.5 23 L 184 23 L 184 38 L 175.5 38 L 172 40.5 L 172 124.5 L 171.5 125 L 159 125 L 159 0 Z " /><path fill="rgb(30,24,26)" stroke="rgb(30,24,26)" stroke-width="1" opacity="1" d="M 217.5 38 L 218.5 39 L 233.5 40 L 239.5 42 L 256 52.5 L 255 53.5 L 259 57.5 L 260.5 60 L 262 60.5 L 262 62.5 L 264 69 L 266 69.5 L 265 72.5 Q 267.2 73.8 266 78.5 L 268 81.5 L 267 84.5 L 267 86.5 L 266 90 L 193.5 90 L 192 91.5 Q 193.2 99.8 198.5 104 L 200 104.5 L 199 105.5 L 202.5 109 L 204 108.5 L 205.5 111 L 216.5 116 L 229.5 116 L 233 115 L 233.5 113 L 235.5 113 Q 244.1 110.6 248 103.5 L 248.5 102 L 262.5 102 L 262 103.5 Q 257.8 114.8 248.5 121 L 232.5 128 L 217.5 129 L 205.5 126 L 200.5 123 L 199 123.5 L 197.5 121 L 189 115.5 L 190 114.5 L 186 110.5 L 180 99.5 L 178 91.5 L 178 75.5 L 182 64.5 L 181.5 63 Q 183.8 63.8 183 61.5 L 194.5 48 L 207.5 41 L 211 41 L 211.5 39 L 215.5 40 L 217.5 38 Z M 215 52 L 215 54 L 214 53 L 205 57 L 194 70 L 192 79 L 194 80 L 251 80 L 252 77 L 252 74 L 248 66 L 245 63 L 245 62 Q 239 55 229 52 L 224 53 L 223 52 L 215 52 Z " /><path fill="rgb(30,24,26)" stroke="rgb(30,24,26)" stroke-width="1" opacity="1" d="M 59.5 39 L 75.5 39 L 85.5 42 L 103 54.5 L 102 55.5 L 105 58.5 L 108 66 L 110 66.5 L 109 68.5 L 113 81.5 L 112 83.5 L 112 85.5 L 111 90 L 38.5 90 L 37 91.5 Q 39.7 101.8 46.5 108 Q 52.3 113.7 61.5 116 L 74.5 116 Q 85.6 112.6 92 104.5 L 94.5 101 L 107.5 101 L 108 102.5 Q 103.1 114.1 93.5 121 L 77.5 128 L 62.5 129 Q 61.3 126.8 56.5 128 L 44.5 123 L 30 110.5 Q 32.5 109 29 107.5 L 27 102 L 25 101.5 L 26 99.5 Q 20.8 91.2 23 75.5 L 26 66.5 L 25.5 65 Q 27.8 65.8 27 63.5 Q 32 53 40.5 46 Q 41.8 48.3 43 45.5 L 43.5 44 L 45.5 44 L 59.5 39 Z M 65 51 L 64 52 Q 58 50 59 54 L 58 53 L 50 57 Q 42 63 38 73 L 39 75 L 37 75 Q 36 79 40 80 L 96 80 L 97 79 Q 97 67 91 63 Q 83 51 65 51 Z " /><path fill="rgb(30,24,26)" stroke="rgb(30,24,26)" stroke-width="1" opacity="1" d="M 138 39 L 150.5 39 L 151 39.5 L 151 125 L 138.5 125 L 138 124.5 L 138 39 Z " /><path fill="rgb(30,24,26)" stroke="rgb(30,24,26)" stroke-width="1" opacity="1" d="M 218.5 148 L 224 152.5 L 222.5 153 L 217.5 150 L 212 154.5 L 212.5 156 Q 210.3 156.8 211 154.5 L 214.5 150 L 218.5 148 Z " /><path fill="rgb(30,24,26)" stroke="rgb(30,24,26)" stroke-width="1" opacity="1" d="M 0.5 149 L 8 150.5 Q 3.4 149.9 2 152.5 Q 1 157 3.5 158 L 9 158.5 Q 3.6 157.6 2 160.5 Q 1 165 3.5 166 L 8 166.5 L 1 167 L 1 150.5 L 0.5 149 Z " /><path fill="rgb(30,24,26)" stroke="rgb(30,24,26)" stroke-width="1" opacity="1" d="M 83.5 149 L 88.5 151 L 90 150.5 L 92 155.5 L 92 161.5 L 89.5 167 L 87.5 167 L 84.5 169 L 78 164.5 L 77 155.5 L 80.5 150 L 83.5 149 Z M 84 150 L 82 151 L 78 156 L 79 164 Q 81 168 83 165 L 83 167 L 88 166 L 91 162 L 90 154 Q 88 150 84 150 Z " /><path fill="rgb(30,24,26)" stroke="rgb(30,24,26)" stroke-width="1" opacity="1" d="M 13.5 150 L 14 164.5 L 15.5 166 L 19 166.5 L 12.5 168 L 13 166.5 L 12 160.5 Q 14.2 159.3 13 154.5 L 12 151.5 L 13.5 150 Z " /><path fill="rgb(30,24,26)" stroke="rgb(30,24,26)" stroke-width="1" opacity="1" d="M 23.5 150 L 24 167 Q 21 168.3 22 164.5 L 23 163.5 L 23.5 150 Z " /><path fill="rgb(30,24,26)" stroke="rgb(30,24,26)" stroke-width="1" opacity="1" d="M 28.5 150 L 35 150.5 L 32 152.5 L 32 166.5 L 30.5 168 L 31 166.5 L 31 152.5 L 29.5 151 L 28.5 150 Z " /><path fill="rgb(30,24,26)" stroke="rgb(30,24,26)" stroke-width="1" opacity="1" d="M 39 150 L 46 150.5 Q 41.4 149.9 40 152.5 Q 39 157 41.5 158 L 45 158.5 L 40 160.5 Q 39 165 41.5 166 L 45 166.5 L 39 167 L 39 150 Z " /><path fill="rgb(30,24,26)" stroke="rgb(30,24,26)" stroke-width="1" opacity="1" d="M 57 150 Q 61.5 148.3 60 153.5 L 58 155.5 L 57.5 167 L 57 150 Z " /><path fill="rgb(30,24,26)" stroke="rgb(30,24,26)" stroke-width="1" opacity="1" d="M 70.5 150 Q 73.5 149.1 72 153.5 L 69 153.5 L 70.5 150 Z " /><path fill="rgb(30,24,26)" stroke="rgb(30,24,26)" stroke-width="1" opacity="1" d="M 97 150 Q 105 148.3 107 153.5 L 106.5 156 L 102.5 151 L 97.5 152 L 97 150 Z " /><path fill="rgb(30,24,26)" stroke="rgb(30,24,26)" stroke-width="1" opacity="1" d="M 112 150 L 119 150.5 Q 114.4 149.9 113 152.5 Q 112 157 114.5 158 L 119 158.5 Q 114.4 157.9 113 160.5 Q 112 165 114.5 166 L 119 166.5 L 112 167 L 112 150 Z " /><path fill="rgb(30,24,26)" stroke="rgb(30,24,26)" stroke-width="1" opacity="1" d="M 124.5 150 L 125 164.5 L 126.5 166 L 130 166.5 L 124 167 L 124.5 150 Z " /><path fill="rgb(30,24,26)" stroke="rgb(30,24,26)" stroke-width="1" opacity="1" d="M 141 150 Q 143.7 148.9 143 151.5 L 144 154 L 141.5 155 L 141 150 Z " /><path fill="rgb(30,24,26)" stroke="rgb(30,24,26)" stroke-width="1" opacity="1" d="M 153 150 L 157 150.5 L 157 167 L 155 166.5 L 155 154.5 Q 153.8 151.8 152.5 154 L 151 153.5 L 153 153 L 153 150 Z " /><path fill="rgb(30,24,26)" stroke="rgb(30,24,26)" stroke-width="1" opacity="1" d="M 166.5 150 L 169 155.5 L 168 155.5 L 168 154 Q 164.3 155.5 165 152.5 L 166.5 150 Z " /><path fill="rgb(30,24,26)" stroke="rgb(30,24,26)" stroke-width="1" opacity="1" d="M 178 150 Q 180.7 148.9 180 151.5 L 182 154.5 L 180.5 154 L 179 154.5 L 179 166.5 L 178 166.5 L 178 150 Z " /><path fill="rgb(30,24,26)" stroke="rgb(30,24,26)" stroke-width="1" opacity="1" d="M 188.5 150 L 189 167 Q 186.3 168.1 187 165.5 L 185 162.5 L 186.5 163 L 188 162.5 L 188.5 150 Z " /><path fill="rgb(30,24,26)" stroke="rgb(30,24,26)" stroke-width="1" opacity="1" d="M 200.5 150 L 202 154 L 198.5 155 L 198 153.5 L 200.5 150 Z " /><path fill="rgb(30,24,26)" stroke="rgb(30,24,26)" stroke-width="1" opacity="1" d="M 230 150 L 237 150.5 Q 232.4 149.9 231 152.5 Q 230 157 232.5 158 L 237 158.5 Q 232.4 157.9 231 160.5 Q 230 165 232.5 166 L 237 166.5 L 230 167 L 230 150 Z " /><path fill="rgb(30,24,26)" stroke="rgb(30,24,26)" stroke-width="1" opacity="1" d="M 242 150 Q 246.5 148.3 245 153.5 L 243 155.5 L 242.5 167 L 242 150 Z " /><path fill="rgb(30,24,26)" stroke="rgb(30,24,26)" stroke-width="1" opacity="1" d="M 255.5 150 Q 258.3 149.4 257 155.5 L 256 155.5 Q 256.7 152.9 254 154 L 254 151.5 L 255.5 150 Z " /><path fill="rgb(30,24,26)" stroke="rgb(30,24,26)" stroke-width="1" opacity="1" d="M 262 150 L 269 150.5 Q 264.4 149.9 263 152.5 Q 262 157 264.5 158 L 269 158.5 Q 264.4 157.9 263 160.5 Q 262 165 264.5 166 L 269 166.5 L 262 167 L 262 150 Z " /><path fill="rgb(30,24,26)" stroke="rgb(30,24,26)" stroke-width="1" opacity="1" d="M 275.5 150 L 278 153.5 L 275.5 155 L 275.5 150 Z " /><path fill="rgb(30,24,26)" stroke="rgb(30,24,26)" stroke-width="1" opacity="1" d="M 285.5 150 L 287 158.5 L 286 159.5 L 286 167 L 283 165.5 L 282 163.5 L 285 162.5 L 285.5 150 Z " /><path fill="rgb(30,24,26)" stroke="rgb(30,24,26)" stroke-width="1" opacity="1" d="M 290.5 150 L 297 150.5 L 294 152.5 L 293.5 157 Q 294.1 152.4 291.5 151 L 290.5 150 Z " /><path fill="rgb(30,24,26)" stroke="rgb(30,24,26)" stroke-width="1" opacity="1" d="M 202.5 155 L 203 157 L 201 156.5 L 202.5 155 Z " /><path fill="rgb(30,24,26)" stroke="rgb(30,24,26)" stroke-width="1" opacity="1" d="M 107.5 157 L 108 159.5 L 107 159.5 L 107.5 157 Z " /><path fill="rgb(30,24,26)" stroke="rgb(30,24,26)" stroke-width="1" opacity="1" d="M 169.5 157 L 173 166.5 L 171 167.5 L 172 165.5 L 169.5 162 Q 163.5 160.5 162 163.5 L 160.5 167 L 161 165.5 L 163.5 158 L 165.5 161 Q 169.3 161.8 170 159.5 L 169.5 157 Z " /><path fill="rgb(30,24,26)" stroke="rgb(30,24,26)" stroke-width="1" opacity="1" d="M 203.5 158 L 206 165.5 L 205 165.5 L 202.5 162 Q 197.3 160.8 196 163.5 L 194.5 167 L 194 165.5 L 196.5 159 Q 197.3 161.8 201.5 161 L 203.5 158 Z " /><path fill="rgb(30,24,26)" stroke="rgb(30,24,26)" stroke-width="1" opacity="1" d="M 218.5 160 L 225.5 160 L 226 161.5 L 221.5 167 L 218.5 169 L 212 164.5 L 211 161 L 213 161.5 L 212 162.5 L 215.5 166 L 219.5 167 L 223 165 L 224 162.5 Q 223 160 218.5 161 L 218.5 160 Z " /><path fill="rgb(30,24,26)" stroke="rgb(30,24,26)" stroke-width="1" opacity="1" d="M 106.5 161 L 107 163.5 L 103.5 168 L 97 167 L 97.5 165 L 102.5 166 L 106.5 161 Z " /><path fill="rgb(30,24,26)" stroke="rgb(30,24,26)" stroke-width="1" opacity="1" d="M 250.5 162 L 251 165.5 L 249 166.5 L 248 163.5 L 250 163.5 L 250.5 162 Z " /><path fill="rgb(30,24,26)" stroke="rgb(30,24,26)" stroke-width="1" opacity="1" d="M 63.5 163 L 66 163.5 L 64.5 167 L 63.5 163 Z " /><path fill="rgb(30,24,26)" stroke="rgb(30,24,26)" stroke-width="1" opacity="1" d="M 149.5 163 L 149 164.5 Q 150 168.3 147 167 Q 145.5 163.3 148.5 164 L 149.5 163 Z " /></svg>